<svg width="2307" height="548" viewBox="0 0 2307 548" fill="none" xmlns="http://www.w3.org/2000/svg">
<g clip-path="url(#clip0_1_54)">
<path d="M537.66 382.289C462.754 415.798 420.906 395.717 381.739 367.316C338.846 336.214 295.788 327.323 295.788 327.323C295.788 327.323 326.993 304.65 374.535 315.362C329.438 272.565 305.194 226.694 227.61 268.211C323.194 202.194 438.896 155.742 542.694 212.694C387.848 -79.3458 138.505 114.194 110.05 151.057C137.818 139.27 184.31 138.162 206.149 164.107C42.3916 202.534 6.17029 307.635 6.17029 307.635C90.359 297.391 180.457 357.887 247.435 415.678C213.948 416.728 190.821 418.184 158.345 434.89C218.973 440.498 267.211 488.268 327.72 502.503C409.664 521.783 470.818 493.656 537.66 382.289Z" fill="white"/>
<path d="M473.704 362.508C481.141 361.906 486.886 360.672 490.94 358.806C495.095 356.931 498.254 354.779 500.416 352.348C502.578 349.917 504.434 347.51 505.984 345.129C507.45 342.959 508.65 341.324 509.587 340.223C510.625 339.113 512.096 338.277 513.998 337.712C515.587 337.071 518.16 336.555 521.718 336.165C525.369 335.664 528.978 335.27 532.544 334.981C536.211 334.685 538.767 334.58 540.21 334.669C542.357 334.598 543.867 334.886 544.74 335.533C545.613 336.18 546.246 337.667 546.639 339.994C547.209 343.229 547.675 347.088 548.037 351.571C548.502 356.046 548.764 359.921 548.824 363.198C548.805 364.225 548.671 365.107 548.423 365.845C548.277 366.575 547.854 367.686 547.155 369.178C546.268 370.891 543.523 389.797 540.824 393.194C538.117 396.489 539.258 395.37 533.824 399.194C528.383 402.916 522.702 402.617 513.824 405.694C505.048 408.763 491.467 410.631 478.324 411.694C464.265 412.831 465.838 418.271 453.324 415.694C440.802 413.015 473.4 427.358 460.824 420.194C450.963 412.378 128.124 306.805 317.194 339.694C310.921 325.537 212.958 315.061 211.194 293.258C209.232 269.011 224.208 291.282 231.194 273.694C222.694 237.694 372.925 181.81 387.694 171.694C402.463 161.577 414.988 173.408 436.179 171.694C451.054 170.49 486.376 176.281 495.588 178.612C504.903 180.935 512.073 183.996 517.097 187.794C522.194 190.194 538.026 207.794 540.21 210.694C541.013 211.757 539.83 193.776 540.21 194.668C544.324 205.286 536.574 201.868 536.824 203.694C537.328 206.114 556.824 204.694 544.324 206.694C544.602 211.389 537.147 229.632 536.824 233.248C536.598 235.522 530.785 231.499 529.926 232.287C529.552 232.727 528.867 233.141 527.873 233.53C526.879 233.918 525.363 234.194 523.326 234.359C520.066 234.623 516.39 234.818 512.298 234.944C508.198 234.968 538.887 233.389 536.824 233.248C534.346 233.038 498.748 234.143 497.57 233.52C496.383 232.796 495.163 231.664 493.911 230.125C491.863 227.624 488.457 224.823 483.694 221.722C478.931 218.621 471.405 217.486 461.115 218.319C446.648 219.489 435.181 226.057 426.715 238.022C418.24 249.886 415.013 268.298 417.032 293.258C419.043 318.117 425.426 336.162 436.179 347.393C447.034 358.615 459.542 363.653 473.704 362.508Z" fill="white"/>
</g>
<path d="M580.21 379.774C575.395 374.332 571.837 367.319 569.534 358.736C567.441 350.154 566.394 338.85 566.394 324.824C566.394 310.799 568.801 297.402 573.616 284.632C578.431 271.863 585.234 260.873 594.026 251.662C612.029 232.404 635.893 222.774 665.618 222.774C676.294 222.774 685.505 224.554 693.25 228.112L746.944 222.774L723.708 345.234C723.08 347.746 722.766 351.305 722.766 355.91C722.766 360.516 724.127 364.284 726.848 367.214C729.779 370.145 733.337 371.82 737.524 372.238C735.431 379.356 730.511 385.008 722.766 389.194C715.23 393.381 707.171 395.474 698.588 395.474C690.005 395.474 682.783 393.8 676.922 390.45C671.27 387.31 667.607 383.019 665.932 377.576C662.583 382.81 657.349 387.101 650.232 390.45C643.115 393.8 634.741 395.474 625.112 395.474C615.692 395.474 607.109 394.218 599.364 391.706C591.619 389.194 585.234 385.217 580.21 379.774ZM646.464 252.29C644.161 256.058 641.963 261.187 639.87 267.676C637.777 273.956 634.951 285.679 631.392 302.844C628.043 319.8 626.368 334.349 626.368 346.49C626.368 358.632 627.31 366.482 629.194 370.04C631.078 373.599 633.695 375.378 637.044 375.378C643.743 375.378 649.499 372.238 654.314 365.958C659.338 359.469 662.792 350.572 664.676 339.268L681.318 247.266C676.922 243.498 672.107 241.614 666.874 241.614C661.85 241.614 657.768 242.452 654.628 244.126C651.697 245.801 648.976 248.522 646.464 252.29ZM838.924 371.924C832.435 387.624 818.828 395.474 798.104 395.474C787.637 395.474 779.055 391.811 772.356 384.484C766.913 378.414 764.192 371.924 764.192 365.016C764.192 349.316 767.855 324.301 775.182 289.97L798.104 169.394L861.846 163.114L831.388 321.998C827.829 337.489 826.05 347.956 826.05 353.398C826.05 365.33 830.341 371.506 838.924 371.924ZM1019.86 258.57C1019.86 267.362 1016.19 274.48 1008.87 279.922C1001.54 285.365 991.911 288.086 979.979 288.086C974.955 288.086 970.977 287.354 968.047 285.888C970.349 280.446 971.815 274.375 972.443 267.676C973.28 260.768 973.699 256.372 973.699 254.488C973.699 245.696 970.663 241.3 964.593 241.3C960.406 241.3 955.905 243.917 951.091 249.15C946.485 254.384 942.194 261.082 938.217 269.246C929.425 288.086 925.029 307.031 925.029 326.08C925.029 336.547 927.017 344.188 930.995 349.002C934.972 353.608 941.357 355.91 950.149 355.91C962.29 355.91 973.175 350.886 982.805 340.838C985.526 337.698 987.619 334.349 989.085 330.79C997.039 334.977 1001.02 342.827 1001.02 354.34C1001.02 366.063 994.527 375.797 981.549 383.542C968.151 391.497 950.777 395.474 929.425 395.474C886.93 395.474 865.683 372.971 865.683 327.964C865.683 295.099 874.998 269.246 893.629 250.406C911.631 231.985 937.17 222.774 970.245 222.774C1003.32 222.774 1019.86 234.706 1019.86 258.57ZM1103.56 371.924C1097.07 387.624 1083.47 395.474 1062.74 395.474C1052.07 395.474 1043.38 391.811 1036.68 384.484C1031.03 377.995 1028.2 371.506 1028.2 365.016C1028.2 348.06 1032.07 323.045 1039.82 289.97L1051.44 229.054L1115.18 222.774L1096.03 321.998C1092.47 337.489 1090.69 347.956 1090.69 353.398C1090.69 365.33 1094.98 371.506 1103.56 371.924ZM1057.09 185.408C1057.09 177.244 1060.44 170.964 1067.14 166.568C1074.05 162.172 1082.42 159.974 1092.26 159.974C1102.1 159.974 1109.95 162.172 1115.81 166.568C1121.88 170.964 1124.91 177.244 1124.91 185.408C1124.91 193.572 1121.56 199.748 1114.87 203.934C1108.38 208.121 1100.21 210.214 1090.37 210.214C1080.54 210.214 1072.48 208.121 1066.2 203.934C1060.13 199.748 1057.09 193.572 1057.09 185.408ZM1276.64 367.842C1267.85 376.634 1257.38 383.438 1245.24 388.252C1233.31 393.067 1221.37 395.474 1209.44 395.474C1197.51 395.474 1189.45 394.428 1185.26 392.334L1175.53 445.714L1111.79 451.994L1155.12 229.054L1206.3 223.716L1202.22 245.382C1211.01 230.52 1224.51 223.088 1242.73 223.088C1263.24 223.088 1278.94 229.682 1289.83 242.87C1299.45 254.802 1304.27 269.874 1304.27 288.086C1304.27 306.298 1301.86 321.894 1297.05 334.872C1292.23 347.851 1285.43 358.841 1276.64 367.842ZM1189.03 371.61C1193.43 375.378 1198.35 377.262 1203.79 377.262C1209.23 377.262 1213.52 376.216 1216.66 374.122C1219.8 372.029 1222.52 368.889 1224.83 364.702C1231.11 353.398 1236.76 330.581 1241.78 296.25C1243.25 286.202 1243.98 276.259 1243.98 266.42C1243.98 256.582 1242.83 250.092 1240.53 246.952C1238.43 243.812 1235.29 242.242 1231.11 242.242C1218.34 242.242 1209.86 254.698 1205.67 279.608L1189.03 371.61ZM1481.13 354.34C1481.13 363.551 1485.84 369.517 1495.26 372.238C1492.96 379.984 1487.31 385.95 1478.31 390.136C1470.77 393.695 1462.82 395.474 1454.44 395.474C1446.28 395.474 1440 394.323 1435.6 392.02C1431.42 389.927 1428.17 387.101 1425.87 383.542C1422.1 378.1 1420.22 370.25 1420.22 359.992C1420.22 353.922 1421.89 342.513 1425.24 325.766L1429.64 301.902C1433.2 283.69 1434.97 271.235 1434.97 264.536C1434.97 252.814 1431.73 246.952 1425.24 246.952C1417.08 246.952 1410.38 252.918 1405.14 264.85C1403.05 269.456 1401.27 275.212 1399.81 282.12L1378.45 389.194L1315.34 395.474L1359.61 169.394L1422.73 163.114L1420.22 175.674C1414.36 207.912 1408.91 229.473 1403.89 240.358C1415.61 228.636 1432.25 222.774 1453.81 222.774C1476.63 222.774 1490.13 230.31 1494.32 245.382C1495.79 250.197 1496.52 254.698 1496.52 258.884C1496.52 263.071 1496.31 266.839 1495.89 270.188C1495.68 273.328 1495.05 277.829 1494.01 283.69L1489.92 306.298L1482.7 341.78C1481.66 346.595 1481.13 350.782 1481.13 354.34ZM1647.84 336.128C1653.07 339.687 1655.69 345.444 1655.69 353.398C1655.69 361.144 1653.7 367.528 1649.72 372.552C1645.74 377.576 1640.51 381.763 1634.02 385.112C1620.62 392.02 1606.7 395.474 1592.26 395.474C1577.82 395.474 1566.3 393.904 1557.72 390.764C1549.35 387.624 1542.33 383.124 1536.68 377.262C1525.59 366.168 1520.04 350.468 1520.04 330.162C1520.04 298.553 1528.62 273.119 1545.79 253.86C1564.21 233.136 1589.43 222.774 1621.46 222.774C1641.35 222.774 1656.21 226.961 1666.05 235.334C1673.38 241.614 1677.04 249.883 1677.04 260.14C1677.04 296.983 1645.22 315.404 1581.58 315.404C1580.75 320.847 1580.33 325.871 1580.33 330.476C1580.33 340.106 1582.42 346.804 1586.61 350.572C1591 354.131 1597.18 355.91 1605.13 355.91C1613.09 355.91 1621.25 354.131 1629.63 350.572C1638.21 346.804 1644.28 341.99 1647.84 336.128ZM1583.78 301.902C1598.64 301.902 1610.37 297.297 1618.95 288.086C1627.53 279.294 1631.82 267.886 1631.82 253.86C1631.82 249.046 1630.88 245.382 1629 242.87C1627.32 240.149 1624.71 238.788 1621.15 238.788C1617.59 238.788 1614.24 239.521 1611.1 240.986C1608.17 242.242 1605.13 245.173 1601.99 249.778C1594.25 260.245 1588.18 277.62 1583.78 301.902ZM1786.07 300.96C1793.6 287.563 1797.37 274.061 1797.37 260.454C1797.37 251.453 1794.13 246.952 1787.64 246.952C1782.61 246.952 1777.49 251.244 1772.25 259.826C1766.81 268.409 1763.25 278.248 1761.58 289.342L1745.25 389.194L1680.25 395.474L1712.28 229.054L1764.09 222.774L1758.44 254.488C1768.69 233.346 1785.34 222.774 1808.36 222.774C1820.5 222.774 1829.82 225.914 1836.31 232.194C1843.01 238.474 1846.36 248.104 1846.36 261.082C1846.36 273.852 1842.06 284.318 1833.48 292.482C1825.11 300.646 1813.7 304.728 1799.26 304.728C1792.98 304.728 1788.58 303.472 1786.07 300.96Z" fill="white"/>
<path d="M1981.29 248.546V257.335H1933.44V388.194H1923.19V257.335H1876.31V248.546H1981.29ZM2039.3 285.655C2067.36 285.655 2081.39 301.183 2081.39 332.237C2081.39 334.451 2081.32 336.762 2081.19 339.171H2003.36C2003.36 365.994 2017.56 379.405 2045.94 379.405C2057.59 379.405 2067.95 377.778 2077 374.522V383.312C2067.95 386.567 2057.59 388.194 2045.94 388.194C2010.72 388.194 1993.11 370.714 1993.11 335.753C1993.11 302.354 2008.51 285.655 2039.3 285.655ZM2003.36 329.991H2071.53C2071.14 306.163 2060.39 294.249 2039.3 294.249C2016.51 294.249 2004.53 306.163 2003.36 329.991ZM2181.98 385.265C2173.51 387.218 2164.4 388.194 2154.63 388.194C2120.13 388.194 2102.87 370.453 2102.87 334.972C2102.87 302.094 2120.13 285.655 2154.63 285.655C2164.4 285.655 2173.51 286.632 2181.98 288.585V297.374C2172.86 295.421 2164.07 294.444 2155.61 294.444C2127.94 294.444 2114.1 307.953 2114.1 334.972C2114.1 364.594 2127.94 379.405 2155.61 379.405C2164.07 379.405 2172.86 378.429 2181.98 376.476V385.265ZM2206 388.194V248.546H2216.25V296.788C2228.23 289.366 2240.5 285.655 2253.07 285.655C2278 285.655 2290.47 298.383 2290.47 323.839V388.194H2280.22V319.64C2280.22 303.103 2271.01 294.835 2252.58 294.835C2240.28 294.835 2228.17 299.164 2216.25 307.823V388.194H2206Z" fill="white"/>
<defs>
<clipPath id="clip0_1_54">
<rect width="533.333" height="533.333" fill="white" transform="translate(0 533.133) rotate(-88.4326)"/>
</clipPath>
</defs>
</svg>
